<svg aria-hidden="true" style="position: absolute; width: 0; height: 0; overflow: hidden;" version="1.1" xmlns="http://www.w3.org/2000/svg" xmlns:xlink="http://www.w3.org/1999/xlink">
<defs>
<symbol id="icon-git" viewBox="0 0 32 32">
<path d="M16 0c-8.835 0-16 7.164-16 16 0 7.069 4.584 13.067 10.943 15.183 0.799 0.148 1.057-0.348 1.057-0.769v-2.979c-4.451 0.968-5.377-1.888-5.377-1.888-0.728-1.849-1.777-2.341-1.777-2.341-1.452-0.993 0.111-0.972 0.111-0.972 1.607 0.112 2.452 1.649 2.452 1.649 1.427 2.445 3.743 1.739 4.656 1.329 0.143-1.033 0.557-1.74 1.016-2.139-3.553-0.407-7.289-1.779-7.289-7.908 0-1.748 0.625-3.175 1.648-4.295-0.165-0.404-0.713-2.032 0.156-4.235 0 0 1.344-0.429 4.401 1.64 1.2-0.34 2.579-0.536 4.003-0.539h0.001c1.36 0.007 2.729 0.184 4.008 0.539 3.055-2.069 4.396-1.64 4.396-1.64 0.871 2.204 0.323 3.832 0.157 4.235 1.027 1.12 1.647 2.548 1.647 4.295 0 6.145-3.743 7.499-7.305 7.895 0.573 0.496 1.097 1.469 1.097 2.963v4.391c0 0.425 0.256 0.925 1.068 0.768 6.353-2.119 10.932-8.115 10.932-15.181 0-8.836-7.164-16-16-16z"></path>
</symbol>
<symbol id="icon-search" viewBox="0 0 32 32">
<path d="M31.008 27.231l-7.58-6.447c-0.784-0.705-1.622-1.029-2.299-0.998 1.789-2.096 2.87-4.815 2.87-7.787 0-6.627-5.373-12-12-12s-12 5.373-12 12 5.373 12 12 12c2.972 0 5.691-1.081 7.787-2.87-0.031 0.677 0.293 1.515 0.998 2.299l6.447 7.58c1.104 1.226 2.907 1.33 4.007 0.23s0.997-2.903-0.23-4.007zM12 20c-4.418 0-8-3.582-8-8s3.582-8 8-8 8 3.582 8 8-3.582 8-8 8z"></path>
</symbol>
<symbol id="icon-iconmonstr-github-5" viewBox="0 0 32 32">
<path d="M16 2.667c7.352 0 13.333 5.981 13.333 13.333s-5.981 13.333-13.333 13.333-13.333-5.981-13.333-13.333 5.981-13.333 13.333-13.333zM16 0c-8.836 0-16 7.164-16 16s7.164 16 16 16 16-7.164 16-16-7.164-16-16-16zM16 8c-4.417 0-8 3.581-8 8 0 3.535 2.292 6.533 5.472 7.591 0.4 0.075 0.528-0.173 0.528-0.385v-1.489c-2.225 0.484-2.689-0.943-2.689-0.943-0.363-0.924-0.888-1.171-0.888-1.171-0.725-0.497 0.055-0.487 0.055-0.487 0.804 0.056 1.227 0.825 1.227 0.825 0.713 1.223 1.871 0.869 2.328 0.665 0.072-0.517 0.279-0.869 0.508-1.069-1.777-0.203-3.644-0.889-3.644-3.953 0-0.873 0.312-1.587 0.824-2.147-0.083-0.204-0.357-1.019 0.077-2.12 0 0 0.672-0.215 2.2 0.82 0.639-0.177 1.323-0.265 2.003-0.269 0.68 0.003 1.364 0.092 2.004 0.269 1.528-1.035 2.197-0.82 2.197-0.82 0.436 1.101 0.161 1.916 0.080 2.117 0.513 0.56 0.823 1.273 0.823 2.147 0 3.073-1.872 3.749-3.653 3.947 0.288 0.248 0.549 0.735 0.549 1.481v2.195c0 0.213 0.128 0.463 0.533 0.384 3.177-1.057 5.467-4.055 5.467-7.588 0-4.419-3.583-8-8-8z"></path>
</symbol>
</defs>
</svg>
